<svg xmlns="http://www.w3.org/2000/svg" viewBox="0 0 207.88 206.4"><defs><style>.cls-1{fill:#426e8c;}.cls-2{fill:#5289af;}.cls-3{fill:#86acc7;}</style></defs><g id="Layer_2" data-name="Layer 2"><g id="Layer_3" data-name="Layer 3"><polygon class="cls-1" points="0 167.46 0 142.9 81.19 173.52 81.19 148.39 0 117.61 0 42.54 101.22 80.86 101.22 105.8 20.13 75.21 20.14 100.35 101.22 131.01 101.22 206.4 0 167.46"/><polygon class="cls-2" points="207.88 67.64 126.12 97.83 126.12 123.06 167 108.26 167 132.82 126.05 148.65 126.05 173.27 207.88 143.2 207.88 167.45 105.35 206.4 105.35 80.76 207.88 42.52 207.88 67.64"/><polygon class="cls-3" points="2.02 38.37 103.33 0 124.22 7.8 43.28 38.37 63.12 45.89 144.51 15.23 205.9 38.34 103.24 76.75 83.33 69.08 164.46 38.38 144.92 30.73 62.85 61.37 2.02 38.37"/></g></g></svg>