<?xml version="1.0" encoding="utf-8"?>
<svg viewBox="39.76 133.315 441.771 101.759" xmlns="http://www.w3.org/2000/svg">
  <path class="cls-1" d="M 172.605 159.691 C 171.199 157.847 169.972 156.511 167.837 156.511 C 165.599 156.511 164.337 158.099 164.337 159.8 C 164.337 161.205 165.165 162.689 166.649 163.808 C 171.525 167.417 175.099 169.906 175.099 174.097 C 175.005 178.035 171.741 181.154 167.803 181.068 C 164.228 181.068 161.886 179.096 159.968 175.576 L 162.172 174.235 C 163.72 177.09 165.623 178.534 167.595 178.534 C 170.307 178.534 172.397 176.562 172.397 174.127 C 172.397 171.277 169.725 169.65 163.839 164.883 C 162.611 163.897 161.64 161.851 161.64 159.903 C 161.64 156.324 164.42 153.834 167.921 153.834 C 171.101 153.834 173.014 155.747 174.71 158.059 L 172.605 159.691 Z" style="fill: rgb(233, 233, 233);" transform="matrix(0.9999999999999999, 0, 0, 0.9999999999999999, -2.842170943040401e-14, 0)"/>
  <path class="cls-1" d="M 197.527 170.883 C 197.417 178.582 189.013 183.276 182.399 179.33 C 175.786 175.385 175.924 165.761 182.647 162.006 C 184.136 161.174 185.813 160.737 187.518 160.736 C 193.123 160.682 197.658 165.28 197.527 170.883 Z M 180.054 170.917 C 180.054 175.108 183.195 178.539 187.528 178.539 C 191.719 178.551 195.097 175.107 195.002 170.917 C 195.002 166.657 191.606 163.118 187.528 163.118 C 183.451 163.118 180.044 166.657 180.044 170.917 L 180.054 170.917 Z" style="fill: rgb(233, 233, 233);" transform="matrix(0.9999999999999999, 0, 0, 0.9999999999999999, -2.842170943040401e-14, 0)"/>
  <path class="cls-1" d="M 219.796 176.552 C 217.918 179.407 214.669 180.886 210.804 180.886 C 204.488 180.886 200.263 176.335 200.263 170.991 C 200.263 165.356 204.666 160.736 210.986 160.736 C 214.669 160.736 218.026 162.255 219.796 165.213 L 217.824 166.441 C 216.203 164.258 213.61 163.015 210.892 163.118 C 206.017 163.118 202.802 166.692 202.802 170.809 C 202.802 174.999 205.982 178.648 210.927 178.648 C 213.631 178.691 216.194 177.444 217.829 175.29 L 219.796 176.552 Z" style="fill: rgb(233, 233, 233);" transform="matrix(0.9999999999999999, 0, 0, 0.9999999999999999, -2.842170943040401e-14, 0)"/>
  <path class="cls-1" d="M 226.945 155.357 C 226.932 156.489 226.016 157.403 224.884 157.413 C 223.76 157.4 222.858 156.482 222.863 155.357 C 222.86 154.24 223.767 153.333 224.884 153.336 C 226.009 153.331 226.929 154.232 226.945 155.357 Z M 223.691 161.244 L 226.156 161.244 L 226.156 180.418 L 223.691 180.418 L 223.691 161.244 Z" style="fill: rgb(233, 233, 233);" transform="matrix(0.9999999999999999, 0, 0, 0.9999999999999999, -2.842170943040401e-14, 0)"/>
  <path class="cls-1" d="M 232.502 171.026 C 232.61 175.433 235.608 178.648 239.724 178.648 C 243.733 178.648 245.641 176.37 247.056 174.063 L 249.116 175.142 C 247.144 178.973 244.186 180.886 239.981 180.886 C 233.626 180.886 229.977 176.01 229.977 170.883 C 229.977 165.647 233.838 160.736 239.838 160.736 C 245.29 160.736 249.698 164.68 249.767 171.026 L 232.502 171.026 Z M 247.056 168.861 C 246.069 164.888 243.19 163.118 239.872 163.118 C 236.421 163.118 233.877 164.962 232.758 168.861 L 247.056 168.861 Z" style="fill: rgb(233, 233, 233);" transform="matrix(0.9999999999999999, 0, 0, 0.9999999999999999, -2.842170943040401e-14, 0)"/>
  <path class="cls-1" d="M 254.89 154.09 L 257.355 154.09 L 257.355 161.244 L 261.299 161.244 L 261.299 163.389 L 257.355 163.389 L 257.355 180.398 L 254.89 180.398 L 254.89 163.389 L 251.493 163.389 L 251.493 161.244 L 254.89 161.244 L 254.89 154.09 Z" style="fill: rgb(233, 233, 233);" transform="matrix(0.9999999999999999, 0, 0, 0.9999999999999999, -2.842170943040401e-14, 0)"/>
  <path class="cls-1" d="M 263.231 161.244 L 265.83 161.244 L 272.436 176.01 L 278.845 161.244 L 281.478 161.244 L 270.001 187.423 L 267.402 187.423 L 271.085 178.973 L 263.231 161.244 Z" style="fill: rgb(233, 233, 233);" transform="matrix(0.9999999999999999, 0, 0, 0.9999999999999999, -2.842170943040401e-14, 0)"/>
  <path class="cls-1" d="M 313.741 170.883 C 313.631 178.582 305.227 183.276 298.614 179.331 C 292.001 175.385 292.138 165.761 298.862 162.006 C 300.354 161.173 302.034 160.736 303.743 160.736 C 309.343 160.687 313.872 165.284 313.741 170.883 Z M 296.264 170.917 C 296.264 175.108 299.409 178.539 303.743 178.539 C 307.934 178.551 311.311 175.107 311.217 170.917 C 311.217 166.657 307.82 163.118 303.743 163.118 C 299.666 163.118 296.264 166.657 296.264 170.917 Z" style="fill: rgb(233, 233, 233);" transform="matrix(0.9999999999999999, 0, 0, 0.9999999999999999, -2.842170943040401e-14, 0)"/>
  <path class="cls-1" d="M 317.893 158.247 C 317.893 155.141 318.652 153.316 321.792 153.316 C 322.755 153.351 323.706 153.534 324.612 153.859 L 324.612 156.279 C 323.892 155.923 323.103 155.726 322.3 155.703 C 320.279 155.703 320.328 156.93 320.328 158.661 L 320.328 161.264 L 324.376 161.264 L 324.376 163.389 L 320.328 163.389 L 320.328 180.398 L 317.863 180.398 L 317.863 163.389 L 315.358 163.389 L 315.358 161.244 L 317.883 161.244 L 317.893 158.247 Z" style="fill: rgb(233, 233, 233);" transform="matrix(0.9999999999999999, 0, 0, 0.9999999999999999, -2.842170943040401e-14, 0)"/>
  <path class="cls-1" d="M 164.371 208.254 C 165.564 210.492 166.935 211.65 168.67 211.65 C 170.332 211.65 171.668 210.566 171.668 209.23 C 171.668 208.293 171.052 207.208 170.006 206.341 C 164.627 201.844 161.448 199.379 161.448 195.677 C 161.448 191.974 164.662 189.144 168.562 189.144 C 171.845 189.144 174.015 190.914 176.07 193.295 L 172.383 196.544 C 171.155 194.814 169.893 193.872 168.483 193.872 C 167.186 193.872 166.284 194.631 166.284 195.677 C 166.284 196.722 167.038 197.338 167.798 197.989 C 172.639 202.254 176.499 204.275 176.499 209.003 C 176.499 213.337 173.25 216.369 168.557 216.369 C 164.766 216.369 162.148 214.53 160.215 210.738 L 164.371 208.254 Z" style="fill: rgb(233, 233, 233);" transform="matrix(0.9999999999999999, 0, 0, 0.9999999999999999, -2.842170943040401e-14, 0)"/>
  <path class="cls-1" d="M 198.641 206.114 C 198.629 213.856 190.24 218.682 183.541 214.801 C 176.842 210.919 176.857 201.241 183.568 197.38 C 185.056 196.524 186.739 196.063 188.455 196.041 C 194.08 195.933 198.686 200.488 198.641 206.114 Z M 183.357 206.114 C 183.357 209.363 185.418 211.675 188.524 211.675 C 191.482 211.675 193.795 209.511 193.795 206.153 C 193.795 202.899 191.665 200.592 188.524 200.592 C 185.532 200.592 183.362 202.939 183.362 206.114 L 183.357 206.114 Z" style="fill: rgb(233, 233, 233);" transform="matrix(0.9999999999999999, 0, 0, 0.9999999999999999, -2.842170943040401e-14, 0)"/>
  <path class="cls-1" d="M 200.371 196.544 L 202.102 196.544 C 202.136 192.25 201.708 188.656 206.761 188.656 C 207.925 188.667 209.076 188.899 210.153 189.341 L 210.153 193.029 C 209.595 192.837 209.012 192.727 208.422 192.704 C 206.544 192.704 206.943 193.69 206.904 196.564 L 209.941 196.564 L 209.941 200.646 L 206.894 200.646 L 206.894 215.738 L 202.092 215.738 L 202.092 200.627 L 200.362 200.627 L 200.371 196.544 Z" style="fill: rgb(233, 233, 233);" transform="matrix(0.9999999999999999, 0, 0, 0.9999999999999999, -2.842170943040401e-14, 0)"/>
  <path class="cls-1" d="M 214.669 189.47 L 219.471 189.47 L 219.471 196.544 L 222.321 196.544 L 222.321 200.661 L 219.471 200.661 L 219.471 215.718 L 214.669 215.718 L 214.669 200.661 L 212.204 200.661 L 212.204 196.544 L 214.669 196.544 L 214.669 189.47 Z" style="fill: rgb(233, 233, 233);" transform="matrix(0.9999999999999999, 0, 0, 0.9999999999999999, -2.842170943040401e-14, 0)"/>
  <path class="cls-1" d="M 223.691 196.544 L 228.424 196.544 L 232.25 207.45 L 236.406 196.544 L 239.295 196.544 L 243.378 207.307 L 247.243 196.544 L 251.971 196.544 L 245.005 215.718 L 241.933 215.718 L 237.851 204.802 L 233.626 215.743 L 230.628 215.743 L 223.691 196.544 Z" style="fill: rgb(233, 233, 233);" transform="matrix(0.9999999999999999, 0, 0, 0.9999999999999999, -2.842170943040401e-14, 0)"/>
  <path class="cls-1" d="M 267.092 213.677 C 265.563 215.315 263.416 216.233 261.176 216.206 C 256.305 216.206 252.04 212.015 252.04 206.134 C 252.04 200.138 256.088 196.022 261.067 196.022 C 263.35 196.015 265.534 196.956 267.097 198.62 L 267.097 196.525 L 271.904 196.525 L 271.904 215.698 L 267.092 215.698 L 267.092 213.677 Z M 256.876 206.094 C 256.876 209.383 259.041 211.798 262.038 211.798 C 265.036 211.798 267.309 209.56 267.309 206.06 C 267.309 202.702 265.07 200.424 262.038 200.424 C 258.863 200.444 256.876 202.973 256.876 206.114 L 256.876 206.094 Z" style="fill: rgb(233, 233, 233);" transform="matrix(0.9999999999999999, 0, 0, 0.9999999999999999, -2.842170943040401e-14, 0)"/>
  <path class="cls-1" d="M 279.767 198.965 C 280.67 196.993 282.232 196.041 283.81 196.041 C 284.538 196.035 285.257 196.204 285.905 196.535 L 284.426 200.651 C 283.99 200.42 283.509 200.286 283.016 200.257 C 281.646 200.257 280.551 201.844 280.453 204.659 C 280.418 205.71 280.418 206.898 280.418 207.948 L 280.418 215.708 L 275.611 215.708 L 275.611 196.544 L 279.767 196.544 L 279.767 198.965 Z" style="fill: rgb(233, 233, 233);" transform="matrix(0.9999999999999999, 0, 0, 0.9999999999999999, -2.842170943040401e-14, 0)"/>
  <path class="cls-1" d="M 305.439 212.001 C 303.383 214.924 300.671 216.226 296.629 216.226 C 290.525 216.226 286.591 211.749 286.591 206.114 C 286.591 200.878 290.382 196.041 296.555 196.041 C 302.624 196.041 306.741 200.375 306.741 206.439 C 306.741 206.873 306.701 207.09 306.701 207.524 L 291.25 207.524 C 291.718 210.374 293.883 211.961 296.629 211.961 C 298.414 212.051 300.152 211.366 301.396 210.083 L 305.439 212.001 Z M 301.899 203.733 C 301.248 201.494 299.192 200.119 296.629 200.119 C 294.247 200.119 292.403 201.312 291.467 203.733 L 301.899 203.733 Z" style="fill: rgb(233, 233, 233);" transform="matrix(0.9999999999999999, 0, 0, 0.9999999999999999, -2.842170943040401e-14, 0)"/>
  <path class="cls-1" d="M 321.275 189.795 L 335.429 189.795 L 335.429 194.631 L 326.205 194.631 L 326.205 199.256 L 335.41 199.256 L 335.41 204.092 L 326.205 204.092 L 326.205 210.881 L 335.41 210.881 L 335.41 215.718 L 321.275 215.718 L 321.275 189.795 Z" style="fill: rgb(233, 233, 233);" transform="matrix(0.9999999999999999, 0, 0, 0.9999999999999999, -2.842170943040401e-14, 0)"/>
  <path class="cls-1" d="M 343.89 198.497 C 345.733 196.944 347.429 196.032 349.559 196.032 C 353.134 196.032 356.131 198.497 356.131 202.604 L 356.131 215.708 L 351.349 215.708 L 351.349 206.656 C 351.349 202.865 351.024 200.444 348.1 200.444 C 346.766 200.439 345.53 201.14 344.851 202.288 C 343.865 203.841 343.909 205.572 343.909 207.558 L 343.909 215.718 L 339.107 215.718 L 339.107 196.544 L 343.909 196.544 L 343.89 198.497 Z" style="fill: rgb(233, 233, 233);" transform="matrix(0.9999999999999999, 0, 0, 0.9999999999999999, -2.842170943040401e-14, 0)"/>
  <path class="cls-1" d="M 378.84 212.977 C 378.84 216.694 378.12 219.189 375.916 221.062 C 374.186 222.507 371.873 223.197 368.95 223.197 C 363.674 223.197 360.317 221.136 359.015 217.128 L 364.325 217.128 C 365.311 218.282 366.746 218.789 368.762 218.789 C 370.532 218.789 371.977 218.296 372.845 217.527 C 373.998 216.443 374.033 215.141 374.033 213.337 C 372.52 214.918 370.408 215.784 368.22 215.718 C 363.058 215.718 359.01 211.601 359.01 205.858 C 359.01 199.941 363.093 196.037 367.969 196.037 C 370.35 196.037 372.228 196.939 374.033 198.635 L 374.033 196.539 L 378.835 196.539 L 378.84 212.977 Z M 363.857 205.897 C 363.857 209.077 366.13 211.32 369.127 211.32 C 372.125 211.32 374.294 209.19 374.294 205.941 C 374.294 202.835 372.233 200.449 369.058 200.449 C 365.883 200.449 363.857 202.939 363.857 205.897 L 363.857 205.897 Z" style="fill: rgb(233, 233, 233);" transform="matrix(0.9999999999999999, 0, 0, 0.9999999999999999, -2.842170943040401e-14, 0)"/>
  <path class="cls-1" d="M 388.325 191.816 C 388.325 193.512 386.949 194.886 385.254 194.883 C 383.49 194.816 382.115 193.329 382.187 191.565 C 382.222 189.908 383.597 188.595 385.254 188.636 C 386.983 188.661 388.361 190.088 388.325 191.816 Z M 382.873 196.544 L 387.675 196.544 L 387.675 215.718 L 382.873 215.718 L 382.873 196.544 Z" style="fill: rgb(233, 233, 233);" transform="matrix(0.9999999999999999, 0, 0, 0.9999999999999999, -2.842170943040401e-14, 0)"/>
  <path class="cls-1" d="M 396.421 198.497 C 398.265 196.944 399.961 196.032 402.091 196.032 C 405.665 196.032 408.663 198.497 408.663 202.604 L 408.663 215.708 L 403.861 215.708 L 403.861 206.656 C 403.861 202.865 403.535 200.444 400.612 200.444 C 399.279 200.441 398.043 201.142 397.363 202.288 C 396.376 203.841 396.421 205.572 396.421 207.558 L 396.421 215.718 L 391.619 215.718 L 391.619 196.544 L 396.421 196.544 L 396.421 198.497 Z" style="fill: rgb(233, 233, 233);" transform="matrix(0.9999999999999999, 0, 0, 0.9999999999999999, -2.842170943040401e-14, 0)"/>
  <path class="cls-1" d="M 430.365 212.001 C 428.304 214.924 425.598 216.226 421.555 216.226 C 415.451 216.226 411.512 211.749 411.512 206.114 C 411.512 200.878 415.304 196.041 421.481 196.041 C 427.545 196.041 431.662 200.375 431.662 206.439 C 431.662 206.873 431.627 207.09 431.627 207.524 L 416.171 207.524 C 416.64 210.374 418.809 211.961 421.555 211.961 C 423.339 212.051 425.075 211.366 426.318 210.083 L 430.365 212.001 Z M 426.825 203.733 C 426.175 201.494 424.119 200.119 421.555 200.119 C 419.169 200.119 417.33 201.312 416.388 203.733 L 426.825 203.733 Z" style="fill: rgb(233, 233, 233);" transform="matrix(0.9999999999999999, 0, 0, 0.9999999999999999, -2.842170943040401e-14, 0)"/>
  <path class="cls-1" d="M 452.911 212.001 C 450.85 214.924 448.144 216.226 444.101 216.226 C 437.997 216.226 434.063 211.749 434.063 206.114 C 434.063 200.878 437.854 196.041 444.027 196.041 C 450.096 196.041 454.213 200.375 454.213 206.439 C 454.213 206.873 454.173 207.09 454.173 207.524 L 438.737 207.524 C 439.23 210.374 441.374 211.961 444.121 211.961 C 445.906 212.051 447.644 211.366 448.888 210.083 L 452.911 212.001 Z M 449.371 203.733 C 448.72 201.494 446.665 200.119 444.101 200.119 C 441.715 200.119 439.876 201.312 438.934 203.733 L 449.371 203.733 Z" style="fill: rgb(233, 233, 233);" transform="matrix(0.9999999999999999, 0, 0, 0.9999999999999999, -2.842170943040401e-14, 0)"/>
  <path class="cls-1" d="M 461.09 198.965 C 461.993 196.993 463.555 196.041 465.133 196.041 C 465.861 196.035 466.58 196.204 467.228 196.535 L 465.749 200.651 C 465.315 200.42 464.835 200.286 464.344 200.257 C 462.969 200.257 461.879 201.844 461.781 204.659 C 461.741 205.71 461.741 206.898 461.741 207.948 L 461.741 215.708 L 456.939 215.708 L 456.939 196.544 L 461.095 196.544 L 461.09 198.965 Z" style="fill: rgb(233, 233, 233);" transform="matrix(0.9999999999999999, 0, 0, 0.9999999999999999, -2.842170943040401e-14, 0)"/>
  <path class="cls-1" d="M 473.258 207.415 C 470.186 205.862 468.633 203.964 468.633 201.563 C 468.633 198.566 471.163 196.041 474.846 196.041 C 477.338 196.03 479.687 197.21 481.166 199.217 L 478.208 202.214 C 477.123 201.129 476.044 200.444 474.885 200.444 C 473.899 200.444 473.154 200.843 473.154 201.603 C 473.154 202.362 473.84 202.648 474.885 203.19 L 476.655 204.092 C 479.835 205.719 481.531 207.381 481.531 210.231 C 481.531 213.682 478.824 216.226 474.629 216.226 C 471.988 216.291 469.481 215.063 467.914 212.937 L 470.872 209.688 C 471.991 210.99 473.618 211.927 474.88 211.927 C 476.142 211.927 477.01 211.241 477.01 210.374 C 477.01 209.506 476.216 208.929 474.88 208.244 L 473.258 207.415 Z" style="fill: rgb(233, 233, 233);" transform="matrix(0.9999999999999999, 0, 0, 0.9999999999999999, -2.842170943040401e-14, 0)"/>
  <polygon class="cls-2" points="39.76 215.876 39.76 203.767 79.789 218.863 79.789 206.474 39.76 191.299 39.76 154.288 89.664 173.18 89.664 185.476 49.685 170.395 49.69 182.789 89.664 197.905 89.664 235.074 39.76 215.876" style="fill: rgb(66, 110, 140);" transform="matrix(0.9999999999999999, 0, 0, 0.9999999999999999, -2.842170943040401e-14, 0)"/>
  <polygon class="cls-3" points="142.249 166.662 101.94 181.547 101.94 193.986 122.095 186.689 122.095 198.797 101.905 206.602 101.905 218.74 142.249 203.915 142.249 215.871 91.7 235.074 91.7 173.131 142.249 154.278 142.249 166.662" style="fill: rgb(82, 137, 175);" transform="matrix(0.9999999999999999, 0, 0, 0.9999999999999999, -2.842170943040401e-14, 0)"/>
  <polygon class="cls-4" points="40.756 152.232 90.704 133.315 101.003 137.16 61.098 152.232 70.88 155.939 111.007 140.823 141.273 152.217 90.66 171.154 80.844 167.372 120.842 152.237 111.209 148.465 70.747 163.571 40.756 152.232" style="fill: rgb(134, 172, 199);" transform="matrix(0.9999999999999999, 0, 0, 0.9999999999999999, -2.842170943040401e-14, 0)"/>
</svg>