<svg xmlns="http://www.w3.org/2000/svg" viewBox="0 0 896.04 206.4"><defs><style>.cls-1{fill:#4d4d4d;}.cls-2{fill:#426e8c;}.cls-3{fill:#5289af;}.cls-4{fill:#86acc7;}</style></defs><g id="Layer_2" data-name="Layer 2"><g id="Layer_3" data-name="Layer 3"><path class="cls-1" d="M269.45,53.5c-2.85-3.74-5.34-6.45-9.67-6.45-4.54,0-7.1,3.22-7.1,6.67,0,2.85,1.68,5.86,4.69,8.13,9.89,7.32,17.14,12.37,17.14,20.87a14.49,14.49,0,0,1-14.8,14.14c-7.25,0-12-4-15.89-11.14L248.29,83c3.14,5.79,7,8.72,11,8.72,5.5,0,9.74-4,9.74-8.94,0-5.78-5.42-9.08-17.36-18.75-2.49-2-4.46-6.15-4.46-10.1,0-7.26,5.64-12.31,12.74-12.31,6.45,0,10.33,3.88,13.77,8.57Z"/><path class="cls-1" d="M320,76.2A20.29,20.29,0,1,1,299.7,55.62,20.11,20.11,0,0,1,320,76.2Zm-35.44.07c0,8.5,6.37,15.46,15.16,15.46a15.12,15.12,0,0,0,15.16-15.46c0-8.64-6.89-15.82-15.16-15.82S284.54,67.63,284.54,76.27Z"/><path class="cls-1" d="M365.17,87.7c-3.81,5.79-10.4,8.79-18.24,8.79-12.81,0-21.38-9.23-21.38-20.07,0-11.43,8.93-20.8,21.75-20.8,7.47,0,14.28,3.08,17.87,9.08l-4,2.49a16.73,16.73,0,0,0-14.06-6.74c-9.89,0-16.41,7.25-16.41,15.6,0,8.5,6.45,15.9,16.48,15.9a17.23,17.23,0,0,0,14-6.81Z"/><path class="cls-1" d="M379.67,44.71a4.22,4.22,0,0,1-4.18,4.17,4.15,4.15,0,0,1-4.1-4.17,4.09,4.09,0,0,1,4.1-4.1A4.16,4.16,0,0,1,379.67,44.71Zm-6.6,11.94h5V95.54h-5Z"/><path class="cls-1" d="M390.94,76.49c.22,8.94,6.3,15.46,14.65,15.46,8.13,0,12-4.62,14.87-9.3l4.18,2.19c-4,7.77-10,11.65-18.53,11.65-12.89,0-20.29-9.89-20.29-20.29,0-10.62,7.83-20.58,20-20.58,11.06,0,20,8,20.14,20.87Zm29.52-4.39c-2-8.06-7.84-11.65-14.57-11.65-7,0-12.16,3.74-14.43,11.65Z"/><path class="cls-1" d="M436.35,42.14h5V56.65h8V61h-8v34.5h-5V61h-6.89V56.65h6.89Z"/><path class="cls-1" d="M453.27,56.65h5.27l13.4,29.95,13-29.95h5.34L467,109.75h-5.27l7.47-17.14Z"/><path class="cls-1" d="M555.72,76.2a20.29,20.29,0,1,1-20.28-20.58A20.11,20.11,0,0,1,555.72,76.2Zm-35.45.07c0,8.5,6.38,15.46,15.17,15.46A15.12,15.12,0,0,0,550.6,76.27c0-8.64-6.89-15.82-15.16-15.82S520.27,67.63,520.27,76.27Z"/><path class="cls-1" d="M564.14,50.57c0-6.3,1.54-10,7.91-10a19,19,0,0,1,5.72,1.1v4.91a11.33,11.33,0,0,0-4.69-1.17c-4.1,0-4,2.49-4,6v5.28h8.21V61h-8.21v34.5h-5V61H559V56.65h5.12Z"/><path class="cls-1" d="M252.75,152c2.42,4.54,5.2,6.89,8.72,6.89,3.37,0,6.08-2.2,6.08-4.91,0-1.9-1.25-4.1-3.37-5.86C253.27,139,246.82,134,246.82,126.49s6.52-13.25,14.43-13.25c6.66,0,11.06,3.59,15.23,8.42L269,128.25c-2.49-3.51-5.05-5.42-7.91-5.42-2.63,0-4.46,1.54-4.46,3.66s1.53,3.37,3.07,4.69c9.82,8.65,17.65,12.75,17.65,22.34,0,8.79-6.59,14.94-16.11,14.94-7.69,0-13-3.73-16.92-11.42Z"/><path class="cls-1" d="M322.26,147.66a20.4,20.4,0,1,1-20.66-20.43A20.27,20.27,0,0,1,322.26,147.66Zm-31,0c0,6.59,4.18,11.28,10.48,11.28,6,0,10.69-4.39,10.69-11.2,0-6.6-4.32-11.28-10.69-11.28C295.67,136.46,291.27,141.22,291.27,147.66Z"/><path class="cls-1" d="M325.77,128.25h3.51c.07-8.71-.8-16,9.45-16a18.55,18.55,0,0,1,6.88,1.39v7.48a12.24,12.24,0,0,0-3.51-.66c-3.81,0-3,2-3.08,7.83h6.16v8.28H339v30.61h-9.74V136.53h-3.51Z"/><path class="cls-1" d="M354.77,113.9h9.74v14.35h5.78v8.35h-5.78v30.54h-9.74V136.6h-5v-8.35h5Z"/><path class="cls-1" d="M373.07,128.25h9.6l7.76,22.12,8.43-22.12h5.86L413,150.08l7.84-21.83h9.59l-14.13,38.89h-6.23L401.79,145l-8.57,22.19h-6.08Z"/><path class="cls-1" d="M461.1,163a16.15,16.15,0,0,1-12,5.13c-9.88,0-18.53-8.5-18.53-20.43,0-12.16,8.21-20.51,18.31-20.51a16.71,16.71,0,0,1,12.23,5.27v-4.25h9.75v38.89H461.1Zm-20.72-15.38c0,6.67,4.39,11.57,10.47,11.57s10.69-4.54,10.69-11.64c0-6.81-4.54-11.43-10.69-11.43C444.41,136.16,440.38,141.29,440.38,147.66Z"/><path class="cls-1" d="M486.81,133.16c1.83-4,5-5.93,8.2-5.93a9.18,9.18,0,0,1,4.25,1l-3,8.35a7,7,0,0,0-2.86-.8c-2.78,0-5,3.22-5.2,8.93-.07,2.13-.07,4.54-.07,6.67v15.74h-9.75V128.25h8.43Z"/><path class="cls-1" d="M538.88,159.6c-4.17,5.93-9.67,8.57-17.87,8.57-12.38,0-20.36-9.08-20.36-20.51,0-10.62,7.69-20.43,20.21-20.43,12.31,0,20.66,8.79,20.66,21.09,0,.88-.08,1.32-.08,2.2H510.1c.95,5.78,5.34,9,10.91,9a12.59,12.59,0,0,0,9.67-3.81Zm-7.18-16.77c-1.32-4.54-5.49-7.33-10.69-7.33-4.83,0-8.57,2.42-10.47,7.33Z"/><path class="cls-1" d="M571,114.56h28.71v9.81H581v9.38h18.67v9.81H581v13.77h18.67v9.81H571Z"/><path class="cls-1" d="M616.87,132.21c3.74-3.15,7.18-5,11.5-5,7.25,0,13.33,5,13.33,13.33v26.58H632V148.76c0-7.69-.66-12.6-6.59-12.6a7.62,7.62,0,0,0-6.59,3.74c-2,3.15-1.91,6.66-1.91,10.69v16.55h-9.74V128.25h9.74Z"/><path class="cls-1" d="M687.76,161.58c0,7.54-1.46,12.6-5.93,16.4-3.51,2.93-8.2,4.33-14.13,4.33-10.7,0-17.51-4.18-20.15-12.31h10.77c2,2.34,4.91,3.37,9,3.37,3.59,0,6.52-1,8.28-2.56,2.34-2.2,2.41-4.84,2.41-8.5a15.66,15.66,0,0,1-11.79,4.83c-10.47,0-18.68-8.35-18.68-20,0-12,8.28-19.92,18.17-19.92,4.83,0,8.64,1.83,12.3,5.27v-4.25h9.74Zm-30.39-14.36c0,6.45,4.61,11,10.69,11s10.48-4.32,10.48-10.91c0-6.3-4.18-11.14-10.62-11.14S657.37,141.22,657.37,147.22Z"/><path class="cls-1" d="M707,118.66a6.22,6.22,0,0,1-6.23,6.22,6.47,6.47,0,0,1-6.22-6.73,6.07,6.07,0,0,1,6.22-5.94A6.32,6.32,0,0,1,707,118.66Zm-11.06,9.59h9.74v38.89h-9.74Z"/><path class="cls-1" d="M723.42,132.21c3.74-3.15,7.18-5,11.5-5,7.25,0,13.33,5,13.33,13.33v26.58h-9.74V148.76c0-7.69-.66-12.6-6.59-12.6a7.64,7.64,0,0,0-6.59,3.74c-2,3.15-1.91,6.66-1.91,10.69v16.55h-9.74V128.25h9.74Z"/><path class="cls-1" d="M792.27,159.6c-4.18,5.93-9.67,8.57-17.87,8.57-12.38,0-20.37-9.08-20.37-20.51,0-10.62,7.69-20.43,20.22-20.43,12.3,0,20.65,8.79,20.65,21.09,0,.88-.07,1.32-.07,2.2H763.48c.95,5.78,5.35,9,10.92,9a12.57,12.57,0,0,0,9.66-3.81Zm-7.18-16.77c-1.32-4.54-5.49-7.33-10.69-7.33-4.84,0-8.57,2.42-10.48,7.33Z"/><path class="cls-1" d="M838,159.6c-4.18,5.93-9.67,8.57-17.87,8.57-12.38,0-20.36-9.08-20.36-20.51,0-10.62,7.69-20.43,20.21-20.43,12.31,0,20.66,8.79,20.66,21.09,0,.88-.08,1.32-.08,2.2H809.25c1,5.78,5.35,9,10.92,9a12.59,12.59,0,0,0,9.67-3.81Zm-7.18-16.77c-1.32-4.54-5.49-7.33-10.69-7.33-4.84,0-8.57,2.42-10.48,7.33Z"/><path class="cls-1" d="M854.59,133.16c1.83-4,5-5.93,8.2-5.93a9.18,9.18,0,0,1,4.25,1l-3,8.35a6.94,6.94,0,0,0-2.85-.8c-2.79,0-5,3.22-5.2,8.93-.08,2.13-.08,4.54-.08,6.67v15.74h-9.74V128.25h8.43Z"/><path class="cls-1" d="M879.27,150.3c-6.23-3.15-9.38-7-9.38-11.87,0-6.08,5.13-11.2,12.6-11.2a15.84,15.84,0,0,1,12.82,6.44l-6,6.08c-2.2-2.2-4.39-3.59-6.74-3.59-2,0-3.51.81-3.51,2.35s1.39,2.12,3.51,3.22l3.59,1.83c6.45,3.3,9.89,6.67,9.89,12.45,0,7-5.49,12.16-14,12.16a16.42,16.42,0,0,1-13.62-6.67l6-6.59c2.27,2.64,5.57,4.54,8.13,4.54s4.32-1.39,4.32-3.15-1.61-2.93-4.32-4.32Z"/><polygon class="cls-2" points="0 167.46 0 142.9 81.19 173.52 81.19 148.39 0 117.61 0 42.54 101.22 80.86 101.22 105.8 20.13 75.21 20.14 100.35 101.22 131.01 101.22 206.4 0 167.46"/><polygon class="cls-3" points="207.88 67.64 126.12 97.83 126.12 123.06 167 108.26 167 132.82 126.05 148.65 126.05 173.27 207.88 143.2 207.88 167.45 105.35 206.4 105.35 80.76 207.88 42.52 207.88 67.64"/><polygon class="cls-4" points="2.02 38.37 103.33 0 124.22 7.8 43.28 38.37 63.12 45.89 144.51 15.23 205.9 38.34 103.24 76.75 83.33 69.08 164.46 38.38 144.92 30.73 62.85 61.37 2.02 38.37"/></g></g></svg>